<svg width="123" height="32" viewBox="0 0 123 32" fill="none" xmlns="http://www.w3.org/2000/svg">
<path fill-rule="evenodd" clip-rule="evenodd" d="M11.7579 8.53602L10.4879 8.31602C10.3958 8.29997 10.301 8.31006 10.2144 8.34515C10.1277 8.38023 10.0527 8.43891 9.99768 8.51451C9.9427 8.59011 9.91001 8.67961 9.90333 8.77285C9.89665 8.8661 9.91624 8.95935 9.95988 9.04202L12.1369 13.189L7.85688 12.484L7.03688 11.568C6.66334 11.0503 6.10853 10.6922 5.48288 10.565L5.47688 10.564L4.51788 10.384C4.43153 10.3677 4.34241 10.3745 4.25951 10.4037C4.17661 10.4328 4.10285 10.4833 4.04566 10.55C3.98848 10.6167 3.94988 10.6973 3.93377 10.7837C3.91766 10.8701 3.92459 10.9592 3.95388 11.042L5.29788 14.838C5.33988 14.9563 5.42484 15.0545 5.53588 15.113L11.1129 18.071C11.1598 18.0962 11.2104 18.1138 11.2629 18.123L23.0769 20.153C23.142 20.1642 23.2087 20.1623 23.273 20.1475C23.3374 20.1328 23.3982 20.1054 23.452 20.067C23.5057 20.0286 23.5513 19.9799 23.5862 19.9238C23.621 19.8677 23.6443 19.8052 23.6549 19.74L23.9699 17.773C24.2079 16.44 23.2749 15.142 21.9049 14.885L21.8879 14.881L17.8079 14.266L13.1419 9.28702L13.1259 9.27102L12.9799 9.13802C12.6319 8.84102 12.2389 8.64802 11.7879 8.54102C11.7779 8.53835 11.7679 8.53668 11.7579 8.53602Z" fill="#3B82F6"/>
<path d="M19.9999 22C20.2651 22 20.5195 22.1054 20.707 22.2929C20.8945 22.4804 20.9999 22.7348 20.9999 23C20.9999 23.2652 20.8945 23.5196 20.707 23.7071C20.5195 23.8947 20.2651 24 19.9999 24H7.99988C7.73467 24 7.48031 23.8947 7.29278 23.7071C7.10524 23.5196 6.99988 23.2652 6.99988 23C6.99988 22.7348 7.10524 22.4804 7.29278 22.2929C7.48031 22.1054 7.73467 22 7.99988 22H19.9999Z" fill="#020617"/>
<path d="M29.14 24V9.58H31.78V21.34H43.54V24H29.14ZM47.3859 24C46.8793 24 46.4126 23.8733 45.9859 23.62C45.5726 23.3667 45.2393 23.0333 44.9859 22.62C44.7459 22.2067 44.6259 21.7467 44.6259 21.24V16.88H53.7859V15.26C53.7859 15.1933 53.7593 15.14 53.7059 15.1C53.6659 15.0467 53.6126 15.02 53.5459 15.02H44.6259V12.4H53.6459C54.1526 12.4 54.6126 12.5267 55.0259 12.78C55.4526 13.0333 55.7859 13.3667 56.0259 13.78C56.2793 14.1933 56.4059 14.6533 56.4059 15.16V24H47.3859ZM47.4859 21.38H53.7859V19.24H47.2459V21.14C47.2459 21.2067 47.2659 21.2667 47.3059 21.32C47.3593 21.36 47.4193 21.38 47.4859 21.38ZM58.3378 24V12.4H67.3578C67.8645 12.4 68.3245 12.5267 68.7378 12.78C69.1645 13.0333 69.4978 13.3667 69.7378 13.78C69.9911 14.1933 70.1178 14.6533 70.1178 15.16V24H67.4978V15.26C67.4978 15.1933 67.4711 15.14 67.4178 15.1C67.3778 15.0467 67.3245 15.02 67.2578 15.02H61.1978C61.1311 15.02 61.0711 15.0467 61.0178 15.1C60.9778 15.14 60.9578 15.1933 60.9578 15.26V24H58.3378ZM74.4036 24C73.8836 24 73.4169 23.8733 73.0036 23.62C72.5903 23.3667 72.2569 23.0333 72.0036 22.62C71.7636 22.2067 71.6436 21.7467 71.6436 21.24V15.16C71.6436 14.6533 71.7636 14.1933 72.0036 13.78C72.2569 13.3667 72.5903 13.0333 73.0036 12.78C73.4169 12.5267 73.8836 12.4 74.4036 12.4H80.8236V8.6H83.4436V24H74.4036ZM74.5236 21.38H80.5836C80.6503 21.38 80.7036 21.36 80.7436 21.32C80.7969 21.2667 80.8236 21.2067 80.8236 21.14V15.26C80.8236 15.1933 80.7969 15.14 80.7436 15.1C80.7036 15.0467 80.6503 15.02 80.5836 15.02H74.5236C74.4569 15.02 74.3969 15.0467 74.3436 15.1C74.3036 15.14 74.2836 15.1933 74.2836 15.26V21.14C74.2836 21.2067 74.3036 21.2667 74.3436 21.32C74.3969 21.36 74.4569 21.38 74.5236 21.38ZM88.4234 24C87.9168 24 87.4568 23.8667 87.0434 23.6C86.6301 23.32 86.2968 22.96 86.0434 22.52C85.7901 22.08 85.6634 21.6133 85.6634 21.12V12.42C85.6634 11.9 85.7901 11.4333 86.0434 11.02C86.2968 10.5933 86.6301 10.2533 87.0434 10C87.4568 9.73333 87.9168 9.6 88.4234 9.6H97.1634C97.6701 9.6 98.1301 9.73333 98.5434 10C98.9568 10.2533 99.2901 10.5933 99.5434 11.02C99.7968 11.4333 99.9234 11.9 99.9234 12.42V21.12C99.9234 21.6133 99.7968 22.08 99.5434 22.52C99.2901 22.96 98.9568 23.32 98.5434 23.6C98.1301 23.8667 97.6701 24 97.1634 24H88.4234ZM89.4834 21.24H97.0634C97.1301 21.24 97.1834 21.22 97.2234 21.18C97.2768 21.1267 97.3034 21.0667 97.3034 21V14.72L89.4834 21.24ZM88.2834 18.8L96.1034 12.28H88.5234C88.4568 12.28 88.3968 12.3067 88.3434 12.36C88.3034 12.4 88.2834 12.4533 88.2834 12.52V18.8ZM102.283 24V12.4H116.663C117.183 12.4 117.65 12.5267 118.063 12.78C118.476 13.0333 118.803 13.3667 119.043 13.78C119.296 14.1933 119.423 14.6533 119.423 15.16V24H116.823V15.26C116.823 15.1933 116.796 15.14 116.743 15.1C116.69 15.0467 116.63 15.02 116.563 15.02H112.423C112.356 15.02 112.296 15.0467 112.243 15.1C112.203 15.14 112.183 15.1933 112.183 15.26V24H109.543V15.26C109.543 15.1933 109.516 15.14 109.463 15.1C109.423 15.0467 109.37 15.02 109.303 15.02H105.143C105.076 15.02 105.016 15.0467 104.963 15.1C104.923 15.14 104.903 15.1933 104.903 15.26V24H102.283Z" fill="#020617"/>
</svg>
